<?xml version="1.0" encoding="UTF-8"?>
<svg version="1.1" xmlns="http://www.w3.org/2000/svg" width="140" height="140">
<path d="M0 0 C4.35099329 3.31053837 8.18593401 7.09485184 12 11 C12.67804688 11.65742188 13.35609375 12.31484375 14.0546875 12.9921875 C25.97138464 25.33258943 30.16418335 42.59270623 30.25 59.1875 C30.2809375 60.65413086 30.2809375 60.65413086 30.3125 62.15039062 C30.41133795 80.84311702 21.8872952 96.81657328 9.3125 110.1875 C-6.10139983 124.99048307 -24.57980048 129.56039653 -45.3359375 129.2734375 C-63.95725232 128.6479793 -79.2639131 120.04023226 -92 107 C-92.67804688 106.34257813 -93.35609375 105.68515625 -94.0546875 105.0078125 C-107.55405238 91.02847021 -110.41724032 72.20950219 -110.21484375 53.6953125 C-110.05101629 47.43730709 -109.17711449 41.88172061 -107 36 C-106.6596875 35.01257812 -106.319375 34.02515625 -105.96875 33.0078125 C-99.67720644 16.30121372 -86.89097497 2.93666897 -71 -5 C-47.541905 -14.67259923 -21.73673352 -13.69919717 0 0 Z " fill="#fffffc" transform="translate(110,11)"/>
<path d="M0 0 C0.97259766 -0.01160156 1.94519531 -0.02320312 2.94726562 -0.03515625 C16.48565958 0.01910585 28.77187872 5.16106263 38.71875 14.39453125 C44.13396856 20.21130203 48.50972777 27.03986673 51.5625 34.375 C51.8615625 35.07496094 52.160625 35.77492187 52.46875 36.49609375 C57.39526768 50.02120942 55.07763805 64.63447746 49.171875 77.375 C42.59748608 90.10855327 32.38575687 99.75712078 18.5625 104.375 C17.9025 104.375 17.2425 104.375 16.5625 104.375 C16.54791748 103.80056152 16.53333496 103.22612305 16.51831055 102.63427734 C16.44336275 100.00554304 16.34686006 97.37801448 16.25 94.75 C16.22744141 93.84636719 16.20488281 92.94273438 16.18164062 92.01171875 C15.97014997 86.74367874 15.41226326 82.97434982 12.5625 78.375 C13.31015625 77.99988281 14.0578125 77.62476562 14.828125 77.23828125 C23.06025384 72.96059127 27.54476202 69.42821395 30.5625 60.375 C31.64563676 53.36723565 29.65439573 47.63329497 26.5625 41.375 C26.2325 41.045 25.9025 40.715 25.5625 40.375 C25.68830678 35.14917977 26.20109679 30.09780643 28.5625 25.375 C21.85246395 26.10794293 21.85246395 26.10794293 16.375 29.5625 C15.776875 30.160625 15.17875 30.75875 14.5625 31.375 C11.6875 31.125 11.6875 31.125 9.88671875 30.7421875 C6.7442591 30.24573169 3.68007081 30.25670194 0.5 30.25 C-0.66660156 30.24742188 -1.83320312 30.24484375 -3.03515625 30.2421875 C-6.43730677 30.29145861 -6.43730677 30.29145861 -9.7265625 30.99609375 C-10.62117188 31.12113281 -11.51578125 31.24617188 -12.4375 31.375 C-14.11737227 30.05834336 -15.78216005 28.72236973 -17.4375 27.375 C-20.3980597 26.45982699 -23.38261448 25.88081982 -26.4375 25.375 C-26.1075 26.365 -25.7775 27.355 -25.4375 28.375 C-24.91599213 33.66702253 -24.55946458 38.49776991 -27.4375 43.125 C-31.10679718 49.46764227 -30.55339154 58.03028619 -28.77734375 64.9453125 C-26.62655002 69.84279086 -23.2035429 73.01585652 -18.4375 75.375 C-15.76349978 76.26945542 -13.21727193 76.83855279 -10.4375 77.375 C-10.125 80.6875 -10.125 80.6875 -10.4375 84.375 C-13.13941032 86.91315818 -15.25421983 87.33834397 -18.875 88.0625 C-22.96960655 87.27231277 -23.30061816 86.73417776 -25.625 83.5 C-26.07230469 82.78070313 -26.51960938 82.06140625 -26.98046875 81.3203125 C-29.38418396 78.11106271 -31.82686983 77.49242888 -35.6875 76.75 C-37.04875 76.564375 -37.04875 76.564375 -38.4375 76.375 C-38.4375 77.035 -38.4375 77.695 -38.4375 78.375 C-37.85742188 78.48714844 -37.27734375 78.59929687 -36.6796875 78.71484375 C-31.53160715 80.01460661 -28.95629645 81.39219345 -26.0625 85.9375 C-25.62164062 86.72253906 -25.18078125 87.50757812 -24.7265625 88.31640625 C-23.45540201 90.65976125 -23.45540201 90.65976125 -20.4375 92.375 C-18.3882906 92.82639459 -18.3882906 92.82639459 -16.25 93 C-14.3628125 93.185625 -14.3628125 93.185625 -12.4375 93.375 C-12.4375 97.335 -12.4375 101.295 -12.4375 105.375 C-26.51334343 101.90703858 -37.88425218 93.83306661 -45.75 81.5625 C-46.68271932 79.8529476 -47.5791229 78.12306278 -48.4375 76.375 C-49.05818359 75.14136719 -49.05818359 75.14136719 -49.69140625 73.8828125 C-54.55649342 62.18626146 -54.65123197 45.98497457 -50.375 34.0625 C-43.26994221 18.89439911 -32.041147 7.65289141 -16.2734375 1.69921875 C-10.86081814 -0.02372565 -5.63945865 -0.06700347 0 0 Z " fill="#128482" transform="translate(69.4375,16.625)"/>
<path d="M0 0 C4.35099329 3.31053837 8.18593401 7.09485184 12 11 C12.67804688 11.65742188 13.35609375 12.31484375 14.0546875 12.9921875 C25.97138464 25.33258943 30.16418335 42.59270623 30.25 59.1875 C30.2809375 60.65413086 30.2809375 60.65413086 30.3125 62.15039062 C30.41133795 80.84311702 21.8872952 96.81657328 9.3125 110.1875 C-6.10139983 124.99048307 -24.57980048 129.56039653 -45.3359375 129.2734375 C-63.95725232 128.6479793 -79.2639131 120.04023226 -92 107 C-92.67804688 106.34257813 -93.35609375 105.68515625 -94.0546875 105.0078125 C-107.55405238 91.02847021 -110.41724032 72.20950219 -110.21484375 53.6953125 C-110.05101629 47.43730709 -109.17711449 41.88172061 -107 36 C-106.6596875 35.01257812 -106.319375 34.02515625 -105.96875 33.0078125 C-99.67720644 16.30121372 -86.89097497 2.93666897 -71 -5 C-47.541905 -14.67259923 -21.73673352 -13.69919717 0 0 Z M-88.87109375 16.47265625 C-101.28787025 31.21330651 -105.24275936 46.76344817 -104.23730469 65.55517578 C-102.51824739 83.26571056 -93.50172184 98.626834 -80 110 C-63.29226882 122.30276344 -46.60102811 125.04571012 -26.41796875 122.55859375 C-9.35006201 118.92566581 5.13821878 108.13144129 15 94 C21.64822593 82.90994626 24.5671493 72.01317793 24.4375 59.125 C24.43065186 58.0736084 24.42380371 57.0222168 24.41674805 55.93896484 C24.25202437 47.95942894 23.26698423 41.35071451 20 34 C19.649375 33.13890625 19.29875 32.2778125 18.9375 31.390625 C11.33094276 14.38151784 -3.30344124 3.95162625 -20 -3 C-44.26093855 -11.76290616 -71.91192842 -1.27530747 -88.87109375 16.47265625 Z " fill="#d0491e" transform="translate(110,11)"/>
</svg>